# xmcd
#
# Track frame offsets: 
#        150
#        12597
#        29267
#        37773
#        48643
#        56731
#        66287
#        76201
#        87751
#        95065
#
# Disc length: 1389 seconds
#
# Revision: 2
# Processed by: cddbd v1.5.1PL2 Copyright (c) Steve Scherf et al.
# Submitted via: ExactAudioCopy v0.95b3
#
DISCID=7c056b0a
DTITLE=Country Guitar On Fire - Country Guitar On Fire
DYEAR=1996
DGENRE=Country
TTITLE0=Tequila
TTITLE1=Orange Blossom Special
TTITLE2=Snow Bird
TTITLE3=12th St. Rag
TTITLE4=Yakety Yak
TTITLE5=Guitar Boogie
TTITLE6=Oklahoma Hills
TTITLE7=Swingin Low
TTITLE8=Just Pickin'
TTITLE9=Wreck of the Old '97
EXTD=Submitted by WinSkol
EXTT0=
EXTT1=
EXTT2=
EXTT3=
EXTT4=
EXTT5=
EXTT6=
EXTT7=
EXTT8=
EXTT9=
PLAYORDER=
